<svg width="375" height="210" viewBox="0 0 375 210" fill="none" xmlns="http://www.w3.org/2000/svg">
<rect width="375" height="210" fill="#DCDCDC"/>
<path d="M197.188 67H206.923C208.027 67 208.923 66.1046 208.923 65V54.8571C208.923 53.7526 209.818 52.8571 210.923 52.8571H216.156C217.94 52.8571 218.831 50.6983 217.567 49.4397L203.466 35.4044C202.686 34.6277 201.425 34.6277 200.645 35.4044L186.544 49.4397C185.28 50.6983 186.171 52.8571 187.955 52.8571H193.188C194.293 52.8571 195.188 53.7526 195.188 54.8571V65C195.188 66.1046 196.084 67 197.188 67Z" fill="#4F4F4F"/>
<path fill-rule="evenodd" clip-rule="evenodd" d="M192.889 54.7778H160.568C157.493 54.7778 155 57.2706 155 60.3457V99.321C155 102.396 157.493 104.889 160.568 104.889H199.543C202.618 104.889 205.111 102.396 205.111 99.321V69.4444H199.543V98.321C199.543 98.8733 199.095 99.321 198.543 99.321H161.568C161.016 99.321 160.568 98.8733 160.568 98.321V61.3457C160.568 60.7934 161.016 60.3457 161.568 60.3457H192.889V54.7778ZM194.816 93.7531C195.629 93.7531 196.103 92.8337 195.63 92.1718L183.634 75.3771C183.24 74.8267 182.426 74.8172 182.02 75.3583L175.179 84.4788C174.814 84.9657 174.103 85.0162 173.672 84.5859L172.519 83.4326C172.089 83.0023 171.377 83.0528 171.012 83.5397L164.552 92.1531C164.057 92.8123 164.528 93.7531 165.352 93.7531H194.816ZM166.136 72.8734C166.136 75.1798 168.005 77.0494 170.312 77.0494C172.618 77.0494 174.488 75.1798 174.488 72.8734C174.488 70.5671 172.618 68.6975 170.312 68.6975C168.005 68.6975 166.136 70.5671 166.136 72.8734Z" fill="#4F4F4F"/>
<path d="M104 136C104 134.343 105.343 133 107 133H268C269.657 133 271 134.343 271 136V174C271 175.657 269.657 177 268 177H107C105.343 177 104 175.657 104 174V136Z" fill="white"/>
<path d="M121.36 161.46C121.953 161.46 122.483 161.36 122.95 161.16C123.417 160.96 123.81 160.68 124.13 160.32C124.457 159.96 124.703 159.53 124.87 159.03C125.043 158.53 125.13 157.98 125.13 157.38V148.67H127.06V157.38C127.06 158.207 126.927 158.973 126.66 159.68C126.4 160.387 126.023 161 125.53 161.52C125.043 162.033 124.447 162.437 123.74 162.73C123.033 163.023 122.24 163.17 121.36 163.17C120.48 163.17 119.687 163.023 118.98 162.73C118.273 162.437 117.673 162.033 117.18 161.52C116.687 161 116.307 160.387 116.04 159.68C115.78 158.973 115.65 158.207 115.65 157.38V148.67H117.58V157.37C117.58 157.97 117.663 158.52 117.83 159.02C118.003 159.52 118.25 159.95 118.57 160.31C118.897 160.67 119.293 160.953 119.76 161.16C120.233 161.36 120.767 161.46 121.36 161.46ZM131.614 160.56C131.941 161 132.297 161.31 132.684 161.49C133.071 161.67 133.504 161.76 133.984 161.76C134.931 161.76 135.657 161.423 136.164 160.75C136.671 160.077 136.924 159.117 136.924 157.87C136.924 157.21 136.864 156.643 136.744 156.17C136.631 155.697 136.464 155.31 136.244 155.01C136.024 154.703 135.754 154.48 135.434 154.34C135.114 154.2 134.751 154.13 134.344 154.13C133.764 154.13 133.254 154.263 132.814 154.53C132.381 154.797 131.981 155.173 131.614 155.66V160.56ZM131.524 154.44C131.951 153.913 132.444 153.49 133.004 153.17C133.564 152.85 134.204 152.69 134.924 152.69C135.511 152.69 136.041 152.803 136.514 153.03C136.987 153.25 137.391 153.58 137.724 154.02C138.057 154.453 138.314 154.993 138.494 155.64C138.674 156.287 138.764 157.03 138.764 157.87C138.764 158.617 138.664 159.313 138.464 159.96C138.264 160.6 137.974 161.157 137.594 161.63C137.221 162.097 136.761 162.467 136.214 162.74C135.674 163.007 135.064 163.14 134.384 163.14C133.764 163.14 133.231 163.037 132.784 162.83C132.344 162.617 131.954 162.323 131.614 161.95V166.43H129.824V152.87H130.894C131.147 152.87 131.304 152.993 131.364 153.24L131.524 154.44ZM142.875 148.27V163H141.095V148.27H142.875ZM150.032 152.71C150.772 152.71 151.438 152.833 152.032 153.08C152.625 153.327 153.132 153.677 153.552 154.13C153.972 154.583 154.292 155.133 154.512 155.78C154.738 156.42 154.852 157.137 154.852 157.93C154.852 158.73 154.738 159.45 154.512 160.09C154.292 160.73 153.972 161.277 153.552 161.73C153.132 162.183 152.625 162.533 152.032 162.78C151.438 163.02 150.772 163.14 150.032 163.14C149.285 163.14 148.612 163.02 148.012 162.78C147.418 162.533 146.912 162.183 146.492 161.73C146.072 161.277 145.748 160.73 145.522 160.09C145.302 159.45 145.192 158.73 145.192 157.93C145.192 157.137 145.302 156.42 145.522 155.78C145.748 155.133 146.072 154.583 146.492 154.13C146.912 153.677 147.418 153.327 148.012 153.08C148.612 152.833 149.285 152.71 150.032 152.71ZM150.032 161.75C151.032 161.75 151.778 161.417 152.272 160.75C152.765 160.077 153.012 159.14 153.012 157.94C153.012 156.733 152.765 155.793 152.272 155.12C151.778 154.447 151.032 154.11 150.032 154.11C149.525 154.11 149.082 154.197 148.702 154.37C148.328 154.543 148.015 154.793 147.762 155.12C147.515 155.447 147.328 155.85 147.202 156.33C147.082 156.803 147.022 157.34 147.022 157.94C147.022 159.14 147.268 160.077 147.762 160.75C148.262 161.417 149.018 161.75 150.032 161.75ZM162.599 158.44C161.779 158.467 161.079 158.533 160.499 158.64C159.926 158.74 159.456 158.873 159.089 159.04C158.729 159.207 158.466 159.403 158.299 159.63C158.139 159.857 158.059 160.11 158.059 160.39C158.059 160.657 158.103 160.887 158.189 161.08C158.276 161.273 158.393 161.433 158.539 161.56C158.693 161.68 158.869 161.77 159.069 161.83C159.276 161.883 159.496 161.91 159.729 161.91C160.043 161.91 160.329 161.88 160.589 161.82C160.849 161.753 161.093 161.66 161.319 161.54C161.553 161.42 161.773 161.277 161.979 161.11C162.193 160.943 162.399 160.753 162.599 160.54V158.44ZM156.849 154.3C157.409 153.76 158.013 153.357 158.659 153.09C159.306 152.823 160.023 152.69 160.809 152.69C161.376 152.69 161.879 152.783 162.319 152.97C162.759 153.157 163.129 153.417 163.429 153.75C163.729 154.083 163.956 154.487 164.109 154.96C164.263 155.433 164.339 155.953 164.339 156.52V163H163.549C163.376 163 163.243 162.973 163.149 162.92C163.056 162.86 162.983 162.747 162.929 162.58L162.729 161.62C162.463 161.867 162.203 162.087 161.949 162.28C161.696 162.467 161.429 162.627 161.149 162.76C160.869 162.887 160.569 162.983 160.249 163.05C159.936 163.123 159.586 163.16 159.199 163.16C158.806 163.16 158.436 163.107 158.089 163C157.743 162.887 157.439 162.72 157.179 162.5C156.926 162.28 156.723 162.003 156.569 161.67C156.423 161.33 156.349 160.93 156.349 160.47C156.349 160.07 156.459 159.687 156.679 159.32C156.899 158.947 157.256 158.617 157.749 158.33C158.243 158.043 158.886 157.81 159.679 157.63C160.473 157.443 161.446 157.337 162.599 157.31V156.52C162.599 155.733 162.429 155.14 162.089 154.74C161.749 154.333 161.253 154.13 160.599 154.13C160.159 154.13 159.789 154.187 159.489 154.3C159.196 154.407 158.939 154.53 158.719 154.67C158.506 154.803 158.319 154.927 158.159 155.04C158.006 155.147 157.853 155.2 157.699 155.2C157.579 155.2 157.476 155.17 157.389 155.11C157.303 155.043 157.229 154.963 157.169 154.87L156.849 154.3ZM173.651 155.28C173.317 154.833 172.957 154.523 172.571 154.35C172.184 154.17 171.751 154.08 171.271 154.08C170.331 154.08 169.607 154.417 169.101 155.09C168.594 155.763 168.341 156.723 168.341 157.97C168.341 158.63 168.397 159.197 168.511 159.67C168.624 160.137 168.791 160.523 169.011 160.83C169.231 161.13 169.501 161.35 169.821 161.49C170.141 161.63 170.504 161.7 170.911 161.7C171.497 161.7 172.007 161.567 172.441 161.3C172.881 161.033 173.284 160.657 173.651 160.17V155.28ZM175.431 148.27V163H174.371C174.117 163 173.957 162.877 173.891 162.63L173.731 161.4C173.297 161.92 172.804 162.34 172.251 162.66C171.697 162.98 171.057 163.14 170.331 163.14C169.751 163.14 169.224 163.03 168.751 162.81C168.277 162.583 167.874 162.253 167.541 161.82C167.207 161.387 166.951 160.847 166.771 160.2C166.591 159.553 166.501 158.81 166.501 157.97C166.501 157.223 166.601 156.53 166.801 155.89C167.001 155.243 167.287 154.683 167.661 154.21C168.034 153.737 168.491 153.367 169.031 153.1C169.577 152.827 170.191 152.69 170.871 152.69C171.491 152.69 172.021 152.797 172.461 153.01C172.907 153.217 173.304 153.507 173.651 153.88V148.27H175.431ZM188.849 158.44C188.029 158.467 187.329 158.533 186.749 158.64C186.176 158.74 185.706 158.873 185.339 159.04C184.979 159.207 184.716 159.403 184.549 159.63C184.389 159.857 184.309 160.11 184.309 160.39C184.309 160.657 184.353 160.887 184.439 161.08C184.526 161.273 184.643 161.433 184.789 161.56C184.943 161.68 185.119 161.77 185.319 161.83C185.526 161.883 185.746 161.91 185.979 161.91C186.293 161.91 186.579 161.88 186.839 161.82C187.099 161.753 187.343 161.66 187.569 161.54C187.803 161.42 188.023 161.277 188.229 161.11C188.443 160.943 188.649 160.753 188.849 160.54V158.44ZM183.099 154.3C183.659 153.76 184.263 153.357 184.909 153.09C185.556 152.823 186.273 152.69 187.059 152.69C187.626 152.69 188.129 152.783 188.569 152.97C189.009 153.157 189.379 153.417 189.679 153.75C189.979 154.083 190.206 154.487 190.359 154.96C190.513 155.433 190.589 155.953 190.589 156.52V163H189.799C189.626 163 189.493 162.973 189.399 162.92C189.306 162.86 189.233 162.747 189.179 162.58L188.979 161.62C188.713 161.867 188.453 162.087 188.199 162.28C187.946 162.467 187.679 162.627 187.399 162.76C187.119 162.887 186.819 162.983 186.499 163.05C186.186 163.123 185.836 163.16 185.449 163.16C185.056 163.16 184.686 163.107 184.339 163C183.993 162.887 183.689 162.72 183.429 162.5C183.176 162.28 182.973 162.003 182.819 161.67C182.673 161.33 182.599 160.93 182.599 160.47C182.599 160.07 182.709 159.687 182.929 159.32C183.149 158.947 183.506 158.617 183.999 158.33C184.493 158.043 185.136 157.81 185.929 157.63C186.723 157.443 187.696 157.337 188.849 157.31V156.52C188.849 155.733 188.679 155.14 188.339 154.74C187.999 154.333 187.503 154.13 186.849 154.13C186.409 154.13 186.039 154.187 185.739 154.3C185.446 154.407 185.189 154.53 184.969 154.67C184.756 154.803 184.569 154.927 184.409 155.04C184.256 155.147 184.103 155.2 183.949 155.2C183.829 155.2 183.726 155.17 183.639 155.11C183.553 155.043 183.479 154.963 183.419 154.87L183.099 154.3ZM194.981 154.34C195.201 154.093 195.434 153.87 195.681 153.67C195.927 153.47 196.187 153.3 196.461 153.16C196.741 153.013 197.034 152.903 197.341 152.83C197.654 152.75 197.991 152.71 198.351 152.71C198.904 152.71 199.391 152.803 199.811 152.99C200.237 153.17 200.591 153.43 200.871 153.77C201.157 154.103 201.374 154.507 201.521 154.98C201.667 155.453 201.741 155.977 201.741 156.55V163H199.951V156.55C199.951 155.783 199.774 155.19 199.421 154.77C199.074 154.343 198.544 154.13 197.831 154.13C197.304 154.13 196.811 154.257 196.351 154.51C195.897 154.763 195.477 155.107 195.091 155.54V163H193.301V152.87H194.371C194.624 152.87 194.781 152.993 194.841 153.24L194.981 154.34ZM211.45 152.87V163H209.67V152.87H211.45ZM211.83 149.69C211.83 149.863 211.793 150.027 211.72 150.18C211.653 150.327 211.56 150.46 211.44 150.58C211.327 150.693 211.19 150.783 211.03 150.85C210.877 150.917 210.713 150.95 210.54 150.95C210.367 150.95 210.203 150.917 210.05 150.85C209.903 150.783 209.773 150.693 209.66 150.58C209.547 150.46 209.457 150.327 209.39 150.18C209.323 150.027 209.29 149.863 209.29 149.69C209.29 149.517 209.323 149.353 209.39 149.2C209.457 149.04 209.547 148.903 209.66 148.79C209.773 148.67 209.903 148.577 210.05 148.51C210.203 148.443 210.367 148.41 210.54 148.41C210.713 148.41 210.877 148.443 211.03 148.51C211.19 148.577 211.327 148.67 211.44 148.79C211.56 148.903 211.653 149.04 211.72 149.2C211.793 149.353 211.83 149.517 211.83 149.69ZM214.375 163V152.87H215.445C215.698 152.87 215.855 152.993 215.915 153.24L216.045 154.28C216.418 153.82 216.838 153.443 217.305 153.15C217.772 152.857 218.312 152.71 218.925 152.71C219.605 152.71 220.155 152.9 220.575 153.28C221.002 153.66 221.308 154.173 221.495 154.82C221.642 154.453 221.828 154.137 222.055 153.87C222.288 153.603 222.548 153.383 222.835 153.21C223.122 153.037 223.425 152.91 223.745 152.83C224.072 152.75 224.402 152.71 224.735 152.71C225.268 152.71 225.742 152.797 226.155 152.97C226.575 153.137 226.928 153.383 227.215 153.71C227.508 154.037 227.732 154.44 227.885 154.92C228.038 155.393 228.115 155.937 228.115 156.55V163H226.325V156.55C226.325 155.757 226.152 155.157 225.805 154.75C225.458 154.337 224.958 154.13 224.305 154.13C224.012 154.13 223.732 154.183 223.465 154.29C223.205 154.39 222.975 154.54 222.775 154.74C222.575 154.94 222.415 155.193 222.295 155.5C222.182 155.8 222.125 156.15 222.125 156.55V163H220.335V156.55C220.335 155.737 220.172 155.13 219.845 154.73C219.518 154.33 219.042 154.13 218.415 154.13C217.975 154.13 217.568 154.25 217.195 154.49C216.822 154.723 216.478 155.043 216.165 155.45V163H214.375ZM236.31 158.44C235.49 158.467 234.79 158.533 234.21 158.64C233.637 158.74 233.167 158.873 232.8 159.04C232.44 159.207 232.177 159.403 232.01 159.63C231.85 159.857 231.77 160.11 231.77 160.39C231.77 160.657 231.813 160.887 231.9 161.08C231.987 161.273 232.103 161.433 232.25 161.56C232.403 161.68 232.58 161.77 232.78 161.83C232.987 161.883 233.207 161.91 233.44 161.91C233.753 161.91 234.04 161.88 234.3 161.82C234.56 161.753 234.803 161.66 235.03 161.54C235.263 161.42 235.483 161.277 235.69 161.11C235.903 160.943 236.11 160.753 236.31 160.54V158.44ZM230.56 154.3C231.12 153.76 231.723 153.357 232.37 153.09C233.017 152.823 233.733 152.69 234.52 152.69C235.087 152.69 235.59 152.783 236.03 152.97C236.47 153.157 236.84 153.417 237.14 153.75C237.44 154.083 237.667 154.487 237.82 154.96C237.973 155.433 238.05 155.953 238.05 156.52V163H237.26C237.087 163 236.953 162.973 236.86 162.92C236.767 162.86 236.693 162.747 236.64 162.58L236.44 161.62C236.173 161.867 235.913 162.087 235.66 162.28C235.407 162.467 235.14 162.627 234.86 162.76C234.58 162.887 234.28 162.983 233.96 163.05C233.647 163.123 233.297 163.16 232.91 163.16C232.517 163.16 232.147 163.107 231.8 163C231.453 162.887 231.15 162.72 230.89 162.5C230.637 162.28 230.433 162.003 230.28 161.67C230.133 161.33 230.06 160.93 230.06 160.47C230.06 160.07 230.17 159.687 230.39 159.32C230.61 158.947 230.967 158.617 231.46 158.33C231.953 158.043 232.597 157.81 233.39 157.63C234.183 157.443 235.157 157.337 236.31 157.31V156.52C236.31 155.733 236.14 155.14 235.8 154.74C235.46 154.333 234.963 154.13 234.31 154.13C233.87 154.13 233.5 154.187 233.2 154.3C232.907 154.407 232.65 154.53 232.43 154.67C232.217 154.803 232.03 154.927 231.87 155.04C231.717 155.147 231.563 155.2 231.41 155.2C231.29 155.2 231.187 155.17 231.1 155.11C231.013 155.043 230.94 154.963 230.88 154.87L230.56 154.3ZM244.292 158.05C244.652 158.05 244.968 158 245.242 157.9C245.515 157.8 245.745 157.66 245.932 157.48C246.118 157.3 246.258 157.087 246.352 156.84C246.445 156.587 246.492 156.31 246.492 156.01C246.492 155.39 246.302 154.897 245.922 154.53C245.548 154.163 245.005 153.98 244.292 153.98C243.572 153.98 243.022 154.163 242.642 154.53C242.268 154.897 242.082 155.39 242.082 156.01C242.082 156.31 242.128 156.587 242.222 156.84C242.322 157.087 242.465 157.3 242.652 157.48C242.838 157.66 243.068 157.8 243.342 157.9C243.615 158 243.932 158.05 244.292 158.05ZM247.502 163.55C247.502 163.303 247.432 163.103 247.292 162.95C247.152 162.797 246.962 162.677 246.722 162.59C246.488 162.503 246.215 162.443 245.902 162.41C245.588 162.37 245.255 162.34 244.902 162.32C244.555 162.3 244.202 162.28 243.842 162.26C243.482 162.24 243.135 162.207 242.802 162.16C242.428 162.333 242.122 162.553 241.882 162.82C241.648 163.08 241.532 163.387 241.532 163.74C241.532 163.967 241.588 164.177 241.702 164.37C241.822 164.57 242.002 164.74 242.242 164.88C242.482 165.027 242.782 165.14 243.142 165.22C243.508 165.307 243.938 165.35 244.432 165.35C244.912 165.35 245.342 165.307 245.722 165.22C246.102 165.133 246.422 165.01 246.682 164.85C246.948 164.69 247.152 164.5 247.292 164.28C247.432 164.06 247.502 163.817 247.502 163.55ZM249.312 153.27V153.93C249.312 154.15 249.172 154.29 248.892 154.35L247.742 154.5C247.968 154.94 248.082 155.427 248.082 155.96C248.082 156.453 247.985 156.903 247.792 157.31C247.605 157.71 247.345 158.053 247.012 158.34C246.678 158.627 246.278 158.847 245.812 159C245.345 159.153 244.838 159.23 244.292 159.23C243.818 159.23 243.372 159.173 242.952 159.06C242.738 159.193 242.575 159.337 242.462 159.49C242.348 159.637 242.292 159.787 242.292 159.94C242.292 160.18 242.388 160.363 242.582 160.49C242.782 160.61 243.042 160.697 243.362 160.75C243.682 160.803 244.045 160.837 244.452 160.85C244.865 160.863 245.285 160.887 245.712 160.92C246.145 160.947 246.565 160.997 246.972 161.07C247.385 161.143 247.752 161.263 248.072 161.43C248.392 161.597 248.648 161.827 248.842 162.12C249.042 162.413 249.142 162.793 249.142 163.26C249.142 163.693 249.032 164.113 248.812 164.52C248.598 164.927 248.288 165.287 247.882 165.6C247.475 165.92 246.975 166.173 246.382 166.36C245.795 166.553 245.132 166.65 244.392 166.65C243.652 166.65 243.005 166.577 242.452 166.43C241.898 166.283 241.438 166.087 241.072 165.84C240.705 165.593 240.428 165.307 240.242 164.98C240.062 164.66 239.972 164.323 239.972 163.97C239.972 163.47 240.128 163.047 240.442 162.7C240.755 162.353 241.185 162.077 241.732 161.87C241.432 161.737 241.192 161.56 241.012 161.34C240.838 161.113 240.752 160.81 240.752 160.43C240.752 160.283 240.778 160.133 240.832 159.98C240.885 159.82 240.965 159.663 241.072 159.51C241.185 159.35 241.322 159.2 241.482 159.06C241.642 158.92 241.828 158.797 242.042 158.69C241.542 158.41 241.152 158.04 240.872 157.58C240.592 157.113 240.452 156.573 240.452 155.96C240.452 155.467 240.545 155.02 240.732 154.62C240.925 154.213 241.192 153.87 241.532 153.59C241.872 153.303 242.275 153.083 242.742 152.93C243.215 152.777 243.732 152.7 244.292 152.7C244.732 152.7 245.142 152.75 245.522 152.85C245.902 152.943 246.248 153.083 246.562 153.27H249.312ZM257.776 156.83C257.776 156.417 257.716 156.04 257.596 155.7C257.483 155.353 257.313 155.057 257.086 154.81C256.866 154.557 256.596 154.363 256.276 154.23C255.956 154.09 255.593 154.02 255.186 154.02C254.333 154.02 253.656 154.27 253.156 154.77C252.663 155.263 252.356 155.95 252.236 156.83H257.776ZM259.216 161.58C258.996 161.847 258.733 162.08 258.426 162.28C258.119 162.473 257.789 162.633 257.436 162.76C257.089 162.887 256.729 162.98 256.356 163.04C255.983 163.107 255.613 163.14 255.246 163.14C254.546 163.14 253.899 163.023 253.306 162.79C252.719 162.55 252.209 162.203 251.776 161.75C251.349 161.29 251.016 160.723 250.776 160.05C250.536 159.377 250.416 158.603 250.416 157.73C250.416 157.023 250.523 156.363 250.736 155.75C250.956 155.137 251.269 154.607 251.676 154.16C252.083 153.707 252.579 153.353 253.166 153.1C253.753 152.84 254.413 152.71 255.146 152.71C255.753 152.71 256.313 152.813 256.826 153.02C257.346 153.22 257.793 153.513 258.166 153.9C258.546 154.28 258.843 154.753 259.056 155.32C259.269 155.88 259.376 156.52 259.376 157.24C259.376 157.52 259.346 157.707 259.286 157.8C259.226 157.893 259.113 157.94 258.946 157.94H252.176C252.196 158.58 252.283 159.137 252.436 159.61C252.596 160.083 252.816 160.48 253.096 160.8C253.376 161.113 253.709 161.35 254.096 161.51C254.483 161.663 254.916 161.74 255.396 161.74C255.843 161.74 256.226 161.69 256.546 161.59C256.873 161.483 257.153 161.37 257.386 161.25C257.619 161.13 257.813 161.02 257.966 160.92C258.126 160.813 258.263 160.76 258.376 160.76C258.523 160.76 258.636 160.817 258.716 160.93L259.216 161.58Z" fill="#4F4F4F"/>
<path d="M107 136H268V130H107V136ZM268 136V174H274V136H268ZM268 174H107V180H268V174ZM107 174V136H101V174H107ZM107 174L107 174H101C101 177.314 103.686 180 107 180V174ZM268 174L268 174V180C271.314 180 274 177.314 274 174H268ZM268 136L268 136H274C274 132.686 271.314 130 268 130V136ZM107 130C103.686 130 101 132.686 101 136H107L107 136V130Z" fill="#4F4F4F"/>
</svg>
